<svg width="12" height="14" viewBox="0 0 12 14" fill="none" xmlns="http://www.w3.org/2000/svg">
<path d="M5.29999 7.90004L8.59999 4.60004L7.64999 3.65004L5.29999 6.00004L4.36666 5.06671L3.41666 6.01671L5.29999 7.90004ZM5.99999 11.9C7.35555 10.6556 8.3611 9.52504 9.01666 8.50837C9.67221 7.49171 9.99999 6.58893 9.99999 5.80004C9.99999 4.58893 9.61388 3.59726 8.84166 2.82504C8.06943 2.05282 7.12221 1.66671 5.99999 1.66671C4.87777 1.66671 3.93055 2.05282 3.15832 2.82504C2.3861 3.59726 1.99999 4.58893 1.99999 5.80004C1.99999 6.58893 2.32777 7.49171 2.98332 8.50837C3.63888 9.52504 4.64443 10.6556 5.99999 11.9ZM5.99999 13.6667C4.2111 12.1445 2.87499 10.7306 1.99166 9.42504C1.10832 8.11948 0.666656 6.91115 0.666656 5.80004C0.666656 4.13337 1.20277 2.8056 2.27499 1.81671C3.34721 0.827819 4.58888 0.333374 5.99999 0.333374C7.4111 0.333374 8.65277 0.827819 9.72499 1.81671C10.7972 2.8056 11.3333 4.13337 11.3333 5.80004C11.3333 6.91115 10.8917 8.11948 10.0083 9.42504C9.12499 10.7306 7.78888 12.1445 5.99999 13.6667Z" fill="#9747FF"/>
</svg>
