<svg width="22" height="28" viewBox="0 0 22 28" fill="none" xmlns="http://www.w3.org/2000/svg">
<path d="M0.66626 23.3337V20.667H3.33293V11.3337C3.33293 9.48922 3.88848 7.85033 4.99959 6.41699C6.1107 4.98366 7.55515 4.04477 9.33292 3.60033V2.66699C9.33292 2.11144 9.52737 1.63921 9.91626 1.25033C10.3051 0.861437 10.7774 0.666992 11.3329 0.666992C11.8885 0.666992 12.3607 0.861437 12.7496 1.25033C13.1385 1.63921 13.3329 2.11144 13.3329 2.66699V3.60033C15.1107 4.04477 16.5551 4.98366 17.6663 6.41699C18.7774 7.85033 19.3329 9.48922 19.3329 11.3337V20.667H21.9996V23.3337H0.66626ZM11.3329 27.3337C10.5996 27.3337 9.97181 27.0726 9.44959 26.5503C8.92737 26.0281 8.66626 25.4003 8.66626 24.667H13.9996C13.9996 25.4003 13.7385 26.0281 13.2163 26.5503C12.694 27.0726 12.0663 27.3337 11.3329 27.3337ZM5.99959 20.667H16.6663V11.3337C16.6663 9.86699 16.144 8.61144 15.0996 7.56699C14.0551 6.52255 12.7996 6.00033 11.3329 6.00033C9.86626 6.00033 8.6107 6.52255 7.56626 7.56699C6.52181 8.61144 5.99959 9.86699 5.99959 11.3337V20.667Z" fill="black"/>
</svg>
