<svg width="12" height="16" viewBox="0 0 12 16" fill="none" xmlns="http://www.w3.org/2000/svg">
<path d="M1.39999 10.7C1.15555 10.2777 0.972212 9.8444 0.84999 9.39996C0.727768 8.95551 0.666656 8.49996 0.666656 8.03329C0.666656 6.5444 1.18332 5.27774 2.21666 4.23329C3.24999 3.18885 4.5111 2.66663 5.99999 2.66663H6.11666L5.04999 1.59996L5.98332 0.666626L8.64999 3.33329L5.98332 5.99996L5.04999 5.06663L6.11666 3.99996H5.99999C4.88888 3.99996 3.94443 4.39163 3.16666 5.17496C2.38888 5.95829 1.99999 6.91107 1.99999 8.03329C1.99999 8.32218 2.03332 8.60552 2.09999 8.88329C2.16666 9.16107 2.26666 9.43329 2.39999 9.69996L1.39999 10.7ZM6.01666 15.3333L3.34999 12.6666L6.01666 9.99996L6.94999 10.9333L5.88332 12H5.99999C7.1111 12 8.05555 11.6083 8.83332 10.825C9.6111 10.0416 9.99999 9.08885 9.99999 7.96663C9.99999 7.67774 9.96666 7.3944 9.89999 7.11663C9.83332 6.83885 9.73332 6.56663 9.59999 6.29996L10.6 5.29996C10.8444 5.72218 11.0278 6.15552 11.15 6.59996C11.2722 7.0444 11.3333 7.49996 11.3333 7.96663C11.3333 9.45551 10.8167 10.7222 9.78332 11.7666C8.74999 12.8111 7.48888 13.3333 5.99999 13.3333H5.88332L6.94999 14.4L6.01666 15.3333Z" fill="#0075FF"/>
</svg>
