<svg width="12" height="14" viewBox="0 0 12 14" fill="none" xmlns="http://www.w3.org/2000/svg">
<path d="M3.33332 12.3334H8.66666V10.3334C8.66666 9.60004 8.40555 8.97226 7.88332 8.45004C7.3611 7.92782 6.73332 7.66671 5.99999 7.66671C5.26666 7.66671 4.63888 7.92782 4.11666 8.45004C3.59443 8.97226 3.33332 9.60004 3.33332 10.3334V12.3334ZM0.666656 13.6667V12.3334H1.99999V10.3334C1.99999 9.6556 2.15832 9.01948 2.47499 8.42504C2.79166 7.8306 3.23332 7.3556 3.79999 7.00004C3.23332 6.64448 2.79166 6.16949 2.47499 5.57504C2.15832 4.9806 1.99999 4.34448 1.99999 3.66671V1.66671H0.666656V0.333374H11.3333V1.66671H9.99999V3.66671C9.99999 4.34448 9.84166 4.9806 9.52499 5.57504C9.20832 6.16949 8.76666 6.64448 8.19999 7.00004C8.76666 7.3556 9.20832 7.8306 9.52499 8.42504C9.84166 9.01948 9.99999 9.6556 9.99999 10.3334V12.3334H11.3333V13.6667H0.666656Z" fill="#FF9600"/>
</svg>
