<svg width="15" height="14" viewBox="0 0 15 14" fill="none" xmlns="http://www.w3.org/2000/svg">
<path d="M4.12496 0H11.4583V8.66667L6.79163 13.3333L5.95829 12.5C5.88052 12.4222 5.81663 12.3167 5.76663 12.1833C5.71663 12.05 5.69163 11.9222 5.69163 11.8V11.5667L6.42496 8.66667H2.12496C1.7694 8.66667 1.45829 8.53333 1.19163 8.26667C0.924959 8 0.791626 7.68889 0.791626 7.33333V6C0.791626 5.92222 0.802737 5.83889 0.824959 5.75C0.847182 5.66111 0.869404 5.57778 0.891626 5.5L2.89163 0.8C2.99163 0.577778 3.15829 0.388889 3.39163 0.233333C3.62496 0.0777778 3.8694 0 4.12496 0ZM10.125 1.33333H4.12496L2.12496 6V7.33333H8.12496L7.22496 11L10.125 8.1V1.33333ZM11.4583 8.66667V7.33333H13.4583V1.33333H11.4583V0H14.7916V8.66667H11.4583Z" fill="#FF0000"/>
</svg>
