<svg width="15" height="14" viewBox="0 0 15 14" fill="none" xmlns="http://www.w3.org/2000/svg">
<path d="M10.875 14H3.54171V5.33329L8.20837 0.666626L9.04171 1.49996C9.11949 1.57774 9.18337 1.68329 9.23337 1.81663C9.28337 1.94996 9.30837 2.07774 9.30837 2.19996V2.43329L8.57504 5.33329H12.875C13.2306 5.33329 13.5417 5.46663 13.8084 5.73329C14.075 5.99996 14.2084 6.31107 14.2084 6.66663V7.99996C14.2084 8.07774 14.1973 8.16107 14.175 8.24996C14.1528 8.33885 14.1306 8.42218 14.1084 8.49996L12.1084 13.2C12.0084 13.4222 11.8417 13.6111 11.6084 13.7666C11.375 13.9222 11.1306 14 10.875 14ZM4.87504 12.6666H10.875L12.875 7.99996V6.66663H6.87504L7.77504 2.99996L4.87504 5.89996V12.6666ZM3.54171 5.33329V6.66663H1.54171V12.6666H3.54171V14H0.208374V5.33329H3.54171Z" fill="#00A600"/>
</svg>
